HIERARCHY
ROOT Hips
{
 OFFSET 0.000000 0.000000 0.000000
 CHANNELS 6 Xposition Yposition Zposition Yrotation Xrotation Zrotation
 JOINT Chest
 {
  OFFSET 0.000000 10.678932 0.006280
  CHANNELS 3 Yrotation Xrotation Zrotation
  JOINT Chest2
  {
   OFFSET 0.000000 10.491159 -0.011408
   CHANNELS 3 Yrotation Xrotation Zrotation
   JOINT Chest3
   {
    OFFSET 0.000000 9.479342 0.000000
    CHANNELS 3 Yrotation Xrotation Zrotation
    JOINT Chest4
    {
     OFFSET 0.000000 9.479342 0.000000
     CHANNELS 3 Yrotation Xrotation Zrotation
     JOINT Neck
     {
      OFFSET 0.000000 13.535332 0.000000
      CHANNELS 3 Yrotation Xrotation Zrotation
      JOINT Head
      {
       OFFSET 0.000000 8.819083 -0.027129
       CHANNELS 3 Yrotation Xrotation Zrotation
       End Site
       {
        OFFSET 0.000000 16.966594 -0.014170
       }
      }
     }
     JOINT RightCollar
     {
      OFFSET -3.012546 7.545150 0.000000
      CHANNELS 3 Yrotation Xrotation Zrotation
      JOINT RightShoulder
      {
       OFFSET -13.683099 0.000000 0.000000
       CHANNELS 3 Yrotation Xrotation Zrotation
       JOINT RightElbow
       {
        OFFSET -26.359998 0.000000 0.000000
        CHANNELS 3 Yrotation Xrotation Zrotation
        JOINT RightWrist
        {
         OFFSET -21.746691 0.000000 0.008601
         CHANNELS 3 Yrotation Xrotation Zrotation
         End Site
         {
          OFFSET -16.348058 0.000000 0.000000
         }
        }
       }
      }
     }
     JOINT LeftCollar
     {
      OFFSET 3.012546 7.545150 0.000000
      CHANNELS 3 Yrotation Xrotation Zrotation
      JOINT LeftShoulder
      {
       OFFSET 13.683099 0.000000 0.000000
       CHANNELS 3 Yrotation Xrotation Zrotation
       JOINT LeftElbow
       {
        OFFSET 26.359998 0.000000 0.000000
        CHANNELS 3 Yrotation Xrotation Zrotation
        JOINT LeftWrist
        {
         OFFSET 21.746691 0.000000 0.008601
         CHANNELS 3 Yrotation Xrotation Zrotation
         End Site
         {
          OFFSET 16.348058 0.000000 0.000000
         }
        }
       }
      }
     }
    }
   }
  }
 }
 JOINT RightHip
 {
  OFFSET -8.622479 -0.030774 -0.003140
  CHANNELS 3 Yrotation Xrotation Zrotation
  JOINT RightKnee
  {
   OFFSET 0.000000 -37.209160 -0.002630
   CHANNELS 3 Yrotation Xrotation Zrotation
   JOINT RightAnkle
   {
    OFFSET 0.000000 -37.343279 -0.058479
    CHANNELS 3 Yrotation Xrotation Zrotation
    JOINT RightToe
    {
     OFFSET 0.000000 -8.903465 15.088070
     CHANNELS 3 Yrotation Xrotation Zrotation
     End Site
     {
      OFFSET 0.000000 -1.471739 6.884388
     }
    }
   }
  }
 }
 JOINT LeftHip
 {
  OFFSET 8.622479 -0.030774 -0.003140
  CHANNELS 3 Yrotation Xrotation Zrotation
  JOINT LeftKnee
  {
   OFFSET 0.000000 -37.209160 -0.002630
   CHANNELS 3 Yrotation Xrotation Zrotation
   JOINT LeftAnkle
   {
    OFFSET 0.000000 -37.343279 -0.058479
    CHANNELS 3 Yrotation Xrotation Zrotation
    JOINT LeftToe
    {
     OFFSET 0.000000 -8.903465 15.088070
     CHANNELS 3 Yrotation Xrotation Zrotation
     End Site
     {
      OFFSET 0.000000 -1.471739 6.884388
     }
    }
   }
  }
 }
}
MOTION
Frames: 16
Frame Time: 0.025000
114.652190 83.869766 -62.562615 -111.693163 -11.250996 -0.103653 5.766233 5.752516 0.127290 0.316983 0.326487 -0.021940 0.504125 0.519351 -0.034048 4.938426 5.096488 -0.136545 6.462150 13.247713 0.508881 12.035590 -11.357557 -1.651608 6.810542 -5.731878 2.199356 28.152978 -36.815084 49.522027 106.493911 14.482677 16.844413 24.857112 -2.703554 -21.041642 -7.841780 -14.875503 -3.308938 -11.027544 -35.385794 -48.049965 -101.996075 -21.440390 -7.683653 1.497604 1.570761 13.294780 3.456911 14.560292 2.932861 -20.676258 11.538526 0.280281 6.807594 -14.706918 -3.276127 -0.241347 -0.638540 -0.350489 15.586451 5.364620 2.292694 -25.719887 18.081856 -3.101954 -0.681645 -13.941593 -4.347660 0.834906 0.222628 -0.023158
114.833565 83.771450 -62.912536 -112.508364 -11.344967 -0.297321 5.755941 5.880517 0.072869 0.324838 0.339952 -0.022045 0.515873 0.539991 -0.034114 4.970680 5.211126 -0.126297 6.403697 13.258194 0.554951 11.905573 -11.347140 -1.540229 6.803400 -5.760432 2.265996 28.103442 -36.822718 49.665068 106.680836 14.472765 16.915927 24.849573 -2.687569 -20.955534 -7.871072 -14.886685 -3.276530 -10.875942 -35.487379 -48.051838 -102.190182 -21.458839 -7.685653 1.587772 1.616161 13.193557 3.848498 13.484812 2.792335 -20.875014 13.754404 0.357424 7.777574 -15.303876 -3.468935 -0.248804 -0.733293 -0.432445 15.848879 5.061193 2.613768 -25.810101 18.883652 -3.140920 -0.013022 -14.523639 -4.179169 0.771779 0.249452 -0.101129
114.962748 83.685774 -63.217501 -113.362832 -11.467666 -0.469954 5.706523 5.993499 0.009435 0.333405 0.354416 -0.022360 0.528668 0.562102 -0.034501 5.006429 5.330431 -0.118574 6.337503 13.301386 0.599411 11.759162 -11.276409 -1.425657 6.776006 -5.721015 2.321929 28.019320 -36.852705 49.847532 106.861869 14.390786 17.024477 24.881989 -2.680065 -20.885171 -7.890740 -14.843757 -3.301875 -10.691097 -35.602135 -48.120546 -102.422924 -21.502874 -7.714394 1.716522 1.669040 13.070990 3.920071 12.310274 2.438354 -20.564344 16.343072 0.484846 8.612870 -15.908045 -3.501579 -0.245217 -0.859658 -0.586778 16.059699 4.935892 2.929492 -25.780762 19.464274 -3.151621 0.663954 -15.013624 -4.011310 0.700293 0.255162 -0.150492
115.061491 83.616992 -63.508709 -114.336806 -11.553575 -0.543512 5.637669 6.067317 -0.127351 0.342161 0.368242 -0.023833 0.541745 0.583170 -0.036724 5.045549 5.439521 -0.128415 6.266612 13.381782 0.655005 11.596853 -11.137969 -1.284809 6.753881 -5.639299 2.379310 27.957962 -36.895403 50.054617 107.032584 14.270782 17.165976 24.921904 -2.696313 -20.776782 -7.866853 -14.766655 -3.367619 -10.475181 -35.746407 -48.229639 -102.677387 -21.513542 -7.761049 1.860648 1.739460 12.940093 3.760663 10.916474 1.710294 -19.752805 19.364527 0.673774 9.551516 -16.414539 -3.368036 -0.204457 -1.062218 -0.750935 16.155405 4.955685 3.145107 -25.575895 19.815509 -3.112697 1.383182 -15.460400 -3.837628 0.632890 0.296490 -0.203840
115.133197 83.564859 -63.748198 -115.440318 -11.615119 -0.533112 5.581636 6.127228 -0.297289 0.352439 0.383040 -0.026382 0.557108 0.605630 -0.040627 5.095933 5.549926 -0.152072 6.171160 13.492810 0.704255 11.388856 -10.943669 -1.143670 6.753625 -5.588700 2.445506 27.915505 -36.864437 50.201289 107.240224 14.182154 17.286709 24.915323 -2.695053 -20.655770 -7.854347 -14.691673 -3.460189 -10.203284 -35.865277 -48.406432 -102.981560 -21.544290 -7.831113 2.036007 1.810558 12.810378 3.749591 9.278878 0.857638 -18.757528 22.713729 0.875471 10.043327 -16.799734 -2.817691 -0.174980 -1.312532 -1.008820 16.256219 5.121831 3.266819 -25.225433 19.946242 -2.997969 2.111540 -15.854575 -3.697823 0.613670 0.371415 -0.216187
115.329866 83.560833 -64.094321 -116.718668 -11.746866 -0.537819 5.581944 6.246713 -0.400828 0.359675 0.397615 -0.029588 0.567740 0.627803 -0.045571 5.113370 5.667432 -0.186064 6.058983 13.632887 0.759737 11.145356 -10.696888 -0.982077 6.761189 -5.549472 2.510183 27.886925 -36.815112 50.367093 107.468547 14.077500 17.427801 24.887704 -2.715031 -20.496173 -7.788983 -14.616866 -3.546640 -9.927303 -35.972452 -48.635914 -103.301445 -21.599936 -7.870502 2.206211 1.868094 12.661152 4.041620 7.748539 -0.268171 -17.579200 26.191714 1.144795 10.452789 -17.157145 -1.999297 -0.037792 -1.510559 -1.027208 16.538353 5.449264 3.519679 -24.954206 19.797618 -2.828600 3.104260 -16.070799 -3.551774 0.389996 0.430501 -0.367994
115.625258 83.629210 -64.477074 -118.017276 -11.998292 -0.604205 5.596511 6.435900 -0.400332 0.359661 0.408286 -0.032227 0.567306 0.644201 -0.049674 5.069203 5.772246 -0.217729 5.901001 13.840968 0.838470 10.802730 -10.328559 -0.753650 6.774168 -5.440571 2.564546 27.742636 -36.780566 50.584896 107.724399 13.846553 17.635260 24.879999 -2.777895 -20.338778 -7.725392 -14.492758 -3.684258 -9.684014 -36.036414 -48.858687 -103.606115 -21.611918 -7.934314 2.357534 1.934195 12.539938 4.548933 6.432541 -1.275100 -17.097468 29.330484 1.229003 11.572116 -17.235517 -2.323995 0.052542 -1.553028 -0.284732 16.865774 5.927881 3.909474 -24.760778 19.423892 -2.641276 4.309271 -16.033043 -3.428978 0.084129 0.399499 -0.563356
115.837865 83.746364 -64.757216 -119.204916 -12.207933 -0.724100 5.531825 6.572092 -0.353171 0.349897 0.409755 -0.032431 0.552154 0.646813 -0.050046 4.957703 5.824375 -0.226134 5.676180 14.159069 0.932451 10.323538 -9.760584 -0.463317 6.776334 -5.297489 2.613069 27.467600 -36.702038 50.860364 108.047041 13.561866 17.890697 24.856301 -2.835991 -20.210687 -7.589217 -14.393459 -3.939844 -9.539927 -35.999016 -49.033547 -103.843107 -21.608712 -8.109126 2.484737 1.979466 12.472892 4.620595 5.250232 -2.192650 -17.756760 31.652780 0.593757 12.393639 -17.260319 -3.207004 0.072942 -1.326123 0.617245 17.270500 6.467780 4.295566 -24.612223 18.869210 -2.366127 5.218264 -15.855666 -3.321701 -0.077704 0.312422 -0.645469
115.931788 83.884047 -64.966392 -120.287320 -12.272420 -0.945584 5.422455 6.588476 -0.203141 0.335670 0.403168 -0.028675 0.530387 0.637213 -0.044234 4.829953 5.815753 -0.185072 5.354318 14.576441 1.039465 9.655217 -9.012966 -0.107301 6.731902 -5.174508 2.628030 27.049061 -36.535576 51.130590 108.418884 13.234020 18.141584 24.819852 -2.879534 -20.084040 -7.450682 -14.331148 -4.272931 -9.487835 -35.845594 -49.232177 -104.007051 -21.633833 -8.370947 2.591488 1.998035 12.469842 4.475403 4.216649 -3.052079 -18.442944 33.027214 -0.258635 11.218914 -17.106983 -3.474221 0.094028 -0.897505 1.567651 17.731594 6.908453 4.741416 -24.379639 18.258358 -2.035323 5.702436 -15.666764 -3.289456 -0.053535 0.205174 -0.581690
115.908463 84.019002 -65.121678 -121.312094 -12.196122 -1.100479 5.250987 6.505476 -0.107699 0.317960 0.390672 -0.022795 0.503377 0.618625 -0.035091 4.683902 5.763002 -0.116421 4.972168 15.062017 1.146630 8.876313 -8.138593 0.270692 6.672134 -5.028806 2.597567 26.553514 -36.325074 51.376440 108.839036 12.872933 18.370913 24.824377 -2.969656 -19.967526 -7.335320 -14.259033 -4.595977 -9.498643 -35.599327 -49.436898 -104.159290 -21.664089 -8.620394 2.696262 1.995865 12.521448 4.198136 3.296769 -4.056914 -18.236762 33.624629 -0.838670 9.279206 -16.913396 -3.195026 0.111910 -0.346128 1.929062 18.286833 7.391055 5.048856 -24.151136 17.439331 -1.639313 6.162583 -15.416776 -3.243437 -0.061429 0.123448 -0.517553
115.783527 84.133251 -65.275151 -122.387161 -12.066759 -1.214778 5.092232 6.397246 -0.007012 0.300718 0.376968 -0.015808 0.477054 0.598103 -0.024159 4.543535 5.695120 -0.027835 4.560437 15.564149 1.232259 8.056223 -7.229565 0.613393 6.623978 -4.881750 2.544522 25.986166 -36.126026 51.568463 109.277792 12.484143 18.551977 24.823203 -3.061809 -19.845473 -7.186699 -14.175529 -4.916343 -9.614564 -35.308272 -49.565048 -104.354397 -21.624792 -8.803947 2.790674 1.961882 12.513011 4.100998 2.455894 -5.167126 -17.187018 33.614048 -0.959559 8.208114 -16.723558 -2.885591 0.129183 0.265546 1.873840 18.989410 7.967547 5.316448 -23.868239 16.498724 -1.167773 6.460345 -15.198791 -3.232539 -0.054885 0.073027 -0.439563
115.570998 84.225943 -65.450591 -123.484813 -12.000613 -1.303521 4.926747 6.340105 0.095742 0.285461 0.367920 -0.009265 0.453580 0.584650 -0.013864 4.402108 5.664726 0.060940 4.140388 16.037819 1.292530 7.237230 -6.368521 0.903344 6.558220 -4.751142 2.514700 25.473783 -35.948752 51.748131 109.696351 12.124050 18.689006 24.783014 -3.156425 -19.660151 -7.040607 -14.128473 -5.212823 -9.749146 -35.004212 -49.612779 -104.623645 -21.509667 -8.907825 2.915988 1.996324 12.512770 4.215873 1.866250 -6.358824 -15.637523 32.952668 -0.657938 8.276763 -16.534896 -2.729881 0.140790 0.855313 1.679849 19.753231 8.707723 5.587134 -23.584664 15.495612 -0.656008 6.648231 -15.015865 -3.243375 -0.047285 0.031902 -0.370069
115.310506 84.290764 -65.682548 -124.630678 -11.939324 -1.376100 4.774377 6.298470 0.208503 0.272175 0.360632 -0.002986 0.433064 0.573819 -0.003946 4.272592 5.643507 0.150444 3.725612 16.482188 1.336539 6.440139 -5.557601 1.153536 6.518109 -4.616459 2.508574 24.895033 -35.811301 51.936018 110.142466 11.670640 18.861201 24.625086 -3.254549 -19.426802 -6.943785 -14.078571 -5.443121 -9.815852 -34.750079 -49.690072 -104.866879 -21.356157 -9.000102 3.010937 2.066995 12.473580 4.366679 1.509573 -7.607423 -14.035764 31.574173 -0.227297 8.778237 -16.251284 -2.461967 0.153764 1.367472 1.492438 20.440805 9.531678 5.882556 -23.163069 14.447519 -0.160725 6.944610 -14.878422 -3.312102 -0.032123 0.012342 -0.322518
115.042556 84.326397 -66.000100 -125.802779 -11.829861 -1.436827 4.622060 6.234857 0.312518 0.258608 0.351489 0.002732 0.412112 0.560100 0.005103 4.142285 5.604282 0.233814 3.345510 16.901632 1.373645 5.714948 -4.789010 1.372186 6.465631 -4.464415 2.525104 24.358493 -35.694307 52.158777 110.609527 11.249791 19.084111 24.484006 -3.402958 -19.212169 -6.813140 -14.016900 -5.622779 -9.838601 -34.571457 -49.802973 -105.045283 -21.308183 -9.169130 3.088030 2.116653 12.419239 4.506384 1.306451 -8.852859 -12.780104 29.523463 0.122750 9.086703 -15.839996 -2.088338 0.176426 1.812567 1.448018 21.019964 10.340315 6.153496 -22.734278 13.440888 0.337512 7.254114 -14.811664 -3.404637 -0.013718 0.000294 -0.304552
114.780075 84.330298 -66.428653 -126.971617 -11.662123 -1.477541 4.483368 6.162268 0.419092 0.246384 0.341850 0.008029 0.393229 0.545536 0.013513 4.026757 5.553576 0.314207 2.985218 17.288256 1.393249 5.036795 -4.078095 1.545822 6.380692 -4.365372 2.550694 23.758452 -35.561326 52.387164 111.144349 10.719679 19.355047 24.342685 -3.538609 -19.081099 -6.729587 -13.992507 -5.803833 -9.897537 -34.333839 -49.860809 -105.281314 -21.286607 -9.322748 3.187834 2.138904 12.384991 4.400416 1.223841 -9.988390 -11.864762 26.883036 0.316667 9.167883 -15.362323 -1.794944 0.213197 2.228196 1.513978 21.457661 11.105541 6.402279 -22.218499 12.505179 0.842733 7.665492 -14.792100 -3.577096 -0.003207 -0.020615 -0.304106
114.522524 84.305469 -66.972801 -128.174660 -11.503541 -1.507219 4.377802 6.086179 0.518260 0.236689 0.332741 0.013097 0.378263 0.531683 0.021586 3.938941 5.496511 0.394797 2.665145 17.662586 1.397410 4.441404 -3.387268 1.672935 6.310180 -4.237295 2.568164 23.323838 -35.388011 52.590142 111.598566 10.265199 19.497327 24.245397 -3.655000 -18.996870 -6.650308 -13.955082 -5.986518 -10.017142 -34.059398 -49.925734 -105.573783 -21.223833 -9.418231 3.292664 2.146357 12.380731 3.992649 1.328581 -10.961757 -11.398068 23.778426 0.361049 8.720449 -14.936658 -1.421916 0.246650 2.663200 1.495664 21.889873 11.879376 6.673401 -21.643562 11.661791 1.380998 8.060983 -14.846713 -3.817675 0.003618 -0.047166 -0.316686
